<svg width="72" height="11" viewBox="0 0 72 11" fill="none" xmlns="http://www.w3.org/2000/svg">
<path d="M5.43848 0.69165C5.67285 0.2229 6.33691 0.242432 6.55176 0.69165L7.84082 3.28931L10.6924 3.69946C11.2002 3.77759 11.3955 4.40259 11.0244 4.77368L8.97363 6.7854L9.46191 9.61743C9.54004 10.1252 8.99316 10.5159 8.54395 10.2815L6.00488 8.93384L3.44629 10.2815C2.99707 10.5159 2.4502 10.1252 2.52832 9.61743L3.0166 6.7854L0.96582 4.77368C0.594727 4.40259 0.790039 3.77759 1.29785 3.69946L4.16895 3.28931L5.43848 0.69165ZM21.6885 0.69165C21.9229 0.2229 22.5869 0.242432 22.8018 0.69165L24.0908 3.28931L26.9424 3.69946C27.4502 3.77759 27.6455 4.40259 27.2744 4.77368L25.2236 6.7854L25.7119 9.61743C25.79 10.1252 25.2432 10.5159 24.7939 10.2815L22.2549 8.93384L19.6963 10.2815C19.2471 10.5159 18.7002 10.1252 18.7783 9.61743L19.2666 6.7854L17.2158 4.77368C16.8447 4.40259 17.04 3.77759 17.5479 3.69946L20.4189 3.28931L21.6885 0.69165ZM37.9385 0.69165C38.1729 0.2229 38.8369 0.242432 39.0518 0.69165L40.3408 3.28931L43.1924 3.69946C43.7002 3.77759 43.8955 4.40259 43.5244 4.77368L41.4736 6.7854L41.9619 9.61743C42.04 10.1252 41.4932 10.5159 41.0439 10.2815L38.5049 8.93384L35.9463 10.2815C35.4971 10.5159 34.9502 10.1252 35.0283 9.61743L35.5166 6.7854L33.4658 4.77368C33.0947 4.40259 33.29 3.77759 33.7979 3.69946L36.6689 3.28931L37.9385 0.69165ZM54.1885 0.69165C54.4229 0.2229 55.0869 0.242432 55.3018 0.69165L56.5908 3.28931L59.4424 3.69946C59.9502 3.77759 60.1455 4.40259 59.7744 4.77368L57.7236 6.7854L58.2119 9.61743C58.29 10.1252 57.7432 10.5159 57.2939 10.2815L54.7549 8.93384L52.1963 10.2815C51.7471 10.5159 51.2002 10.1252 51.2783 9.61743L51.7666 6.7854L49.7158 4.77368C49.3447 4.40259 49.54 3.77759 50.0479 3.69946L52.9189 3.28931L54.1885 0.69165ZM70.4385 0.69165C70.6729 0.2229 71.3369 0.242432 71.5518 0.69165L72.8408 3.28931L75.6924 3.69946C76.2002 3.77759 76.3955 4.40259 76.0244 4.77368L73.9736 6.7854L74.4619 9.61743C74.54 10.1252 73.9932 10.5159 73.5439 10.2815L71.0049 8.93384L68.4463 10.2815C67.9971 10.5159 67.4502 10.1252 67.5283 9.61743L68.0166 6.7854L65.9658 4.77368C65.5947 4.40259 65.79 3.77759 66.2979 3.69946L69.1689 3.28931L70.4385 0.69165Z" fill="#81C7A2"/>
</svg>
