<svg width="11" height="6" viewBox="0 0 11 6" fill="none" xmlns="http://www.w3.org/2000/svg">
<path d="M10.0238 0.735L9.5175 0.22875C9.45 0.16125 9.37125 0.1275 9.28125 0.1275C9.19125 0.1275 9.1125 0.16125 9.045 0.22875L5.0625 4.21125L1.08 0.22875C1.0125 0.16125 0.93375 0.1275 0.84375 0.1275C0.75375 0.1275 0.675 0.16125 0.6075 0.22875L0.10125 0.735C0.03375 0.8025 0 0.875625 0 0.954375C0 1.03312 0.03375 1.10625 0.10125 1.17375L4.82625 5.89875C4.89375 5.96625 4.9725 6 5.0625 6C5.1525 6 5.23125 5.96625 5.29875 5.89875L10.0238 1.17375C10.0913 1.10625 10.125 1.03312 10.125 0.954375C10.125 0.875625 10.0913 0.8025 10.0238 0.735Z" fill="#2AAA94"/>
</svg>
